<svg width="169" height="57" viewBox="0 0 169 57" fill="none" xmlns="http://www.w3.org/2000/svg">
<path d="M16.1875 24.1406C15.5938 23.5156 15.1094 22.75 14.7344 21.8438C14.3906 20.9062 14.125 19.9844 13.9375 19.0781C13.7188 18.0469 13.5625 16.9531 13.4688 15.7969C13.3125 13.5469 13.5625 11.5 14.2188 9.65625C14.875 7.8125 15.7656 6.23438 16.8906 4.92188C18.0156 3.60938 19.2656 2.59375 20.6406 1.875C22.0469 1.15625 23.4062 0.796875 24.7188 0.796875C25.3125 0.796875 25.7812 0.9375 26.125 1.21875C26.5 1.5 26.7812 1.84375 26.9688 2.25C27.1562 2.65625 27.2656 3.07812 27.2969 3.51562C27.3594 3.95313 27.3906 4.3125 27.3906 4.59375C27.3906 5.59375 27.3594 6.57813 27.2969 7.54688C27.2656 8.51562 27.1875 9.54688 27.0625 10.6406C26.9688 11.7344 26.8125 12.9062 26.5938 14.1562C26.375 15.4062 26.0938 16.7969 25.75 18.3281C25.5625 19.1719 25.2969 20.25 24.9531 21.5625C24.6094 22.875 24.2031 24.3281 23.7344 25.9219C25.1406 25.9531 26.2656 26.0156 27.1094 26.1094C27.9844 26.1719 28.5469 26.2188 28.7969 26.25C29.0156 26.2812 29.1719 26.3906 29.2656 26.5781C29.3906 26.7656 29.3281 27.0625 29.0781 27.4688C28.8281 27.8438 28.4688 28.0625 28 28.125C27.5625 28.1875 27.125 28.2188 26.6875 28.2188C26.4375 28.2188 25.9688 28.2188 25.2812 28.2188C24.625 28.2188 23.8438 28.25 22.9375 28.3125C22.2812 30.25 21.5312 32.2031 20.6875 34.1719C19.875 36.1094 18.9688 37.8594 17.9688 39.4219C16.9688 41.0156 15.875 42.2969 14.6875 43.2656C13.5 44.2656 12.2344 44.7656 10.8906 44.7656C8.95312 44.7656 7.3125 44.3906 5.96875 43.6406C4.65625 42.9219 3.59375 42.0625 2.78125 41.0625C1.9375 40.0938 1.32812 39.1094 0.953125 38.1094C0.578125 37.1406 0.390625 36.3906 0.390625 35.8594C0.390625 34.9219 0.640625 33.9688 1.14062 33C1.64062 32.0312 2.4375 31.125 3.53125 30.2812C4.59375 29.4062 5.98438 28.6406 7.70312 27.9844C9.42188 27.3281 11.4844 26.8281 13.8906 26.4844C14.8906 26.3594 15.8438 26.2656 16.75 26.2031C17.6562 26.1094 18.5156 26.0312 19.3281 25.9688C19.9531 23.625 20.5781 21.2344 21.2031 18.7969C21.8594 16.3594 22.4219 14.1094 22.8906 12.0469C23.0781 11.2031 23.2656 10.2969 23.4531 9.32812C23.6406 8.32812 23.7812 7.39062 23.875 6.51562C24 5.64063 24.0625 4.90625 24.0625 4.3125C24.0938 3.71875 24.0312 3.39063 23.875 3.32812C23.7812 3.29688 23.5469 3.42188 23.1719 3.70312C22.7969 3.95313 22.3594 4.32813 21.8594 4.82812C21.3594 5.32812 20.8594 5.9375 20.3594 6.65625C19.8906 7.34375 19.5 8.09375 19.1875 8.90625C18.625 10.5 18.1875 12.0625 17.875 13.5938C17.625 14.9062 17.4688 16.2969 17.4062 17.7656C17.3438 19.2344 17.5781 20.5625 18.1094 21.75C18.0469 22.1875 17.9531 22.5469 17.8281 22.8281C17.7344 22.9844 17.6562 23.125 17.5938 23.25C17.5 23.3438 17.3906 23.4531 17.2656 23.5781C17.1406 23.6719 16.9844 23.7812 16.7969 23.9062C16.6406 24 16.4375 24.0781 16.1875 24.1406ZM15.625 37.2188C15.9688 36.5 16.3906 35.3906 16.8906 33.8906C17.3906 32.3906 17.9219 30.6562 18.4844 28.6875C16.9531 28.875 15.4062 29.1406 13.8438 29.4844C12.2812 29.7969 10.8594 30.2344 9.57812 30.7969C8.32812 31.3281 7.29688 31.9844 6.48438 32.7656C5.70312 33.5469 5.3125 34.4688 5.3125 35.5312C5.3125 36.6562 5.53125 37.6406 5.96875 38.4844C6.4375 39.3281 6.98438 40.0312 7.60938 40.5938C8.26562 41.1562 8.92188 41.5781 9.57812 41.8594C10.2656 42.1719 10.8438 42.3281 11.3125 42.3281C11.7812 42.3281 12.2188 42.1406 12.625 41.7656C13.0625 41.4219 13.4531 40.9844 13.7969 40.4531C14.1719 39.9531 14.5 39.4062 14.7812 38.8125C15.0938 38.2188 15.375 37.6875 15.625 37.2188ZM51.625 33.8438C51.625 33.1875 51.6875 32.4375 51.8125 31.5938C51.9688 30.75 52.1562 29.8906 52.375 29.0156C52.5938 28.1094 52.8125 27.2344 53.0312 26.3906C53.25 25.5469 53.4375 24.7969 53.5938 24.1406C53.7812 23.3281 53.7656 22.7031 53.5469 22.2656C53.3281 21.8281 52.9531 21.6094 52.4219 21.6094C52.1719 21.6094 51.6719 21.8281 50.9219 22.2656C50.2031 22.7031 49.4062 23.4688 48.5312 24.5625C47.6875 25.625 46.8438 27.0781 46 28.9219C45.1875 30.7344 44.5469 33.0469 44.0781 35.8594C43.4844 36.1719 42.9219 36.375 42.3906 36.4688C42.1094 36.5312 41.8594 36.5781 41.6406 36.6094C41.0156 36.6406 40.6094 36.5312 40.4219 36.2812C40.2344 36.0625 40.2656 35.5 40.5156 34.5938C40.6406 34.1562 40.8594 33.4531 41.1719 32.4844C41.5156 31.5156 41.8438 30.4688 42.1562 29.3438C42.4688 28.1875 42.7344 27.0469 42.9531 25.9219C43.2031 24.7656 43.3281 23.7656 43.3281 22.9219C43.3281 22.3281 43.2188 21.9219 43 21.7031C42.8125 21.4844 42.5312 21.375 42.1562 21.375C41.875 21.375 41.4062 21.5312 40.75 21.8438C40.0938 22.1562 39.3594 22.7656 38.5469 23.6719C37.7344 24.5781 36.9219 25.8438 36.1094 27.4688C35.3281 29.0625 34.6562 31.1406 34.0938 33.7031V33.6094C34.0312 33.8594 33.9688 34.1094 33.9062 34.3594C33.8438 34.5781 33.7969 34.8125 33.7656 35.0625C33.7344 35.3125 33.6875 35.5469 33.625 35.7656L31.2812 36.7969C31.125 36.8594 30.9219 36.9062 30.6719 36.9375C30.4531 36.9688 30.2344 36.9219 30.0156 36.7969C29.8281 36.7031 29.6875 36.4844 29.5938 36.1406C29.5 35.7969 29.5312 35.2812 29.6875 34.5938L32.6406 22.3594C32.7344 21.9531 32.8125 21.5625 32.875 21.1875C32.9375 20.8438 32.9688 20.5156 32.9688 20.2031C33 19.8594 32.9844 19.5781 32.9219 19.3594C33.4531 19.1094 33.9219 18.9219 34.3281 18.7969C34.7344 18.6719 35.0625 18.5781 35.3125 18.5156C35.625 18.4219 35.8906 18.375 36.1094 18.375C37.1094 18.375 37.4375 19.2344 37.0938 20.9531C36.9688 21.4531 36.7812 22.1875 36.5312 23.1562C37.125 22.4062 37.75 21.7031 38.4062 21.0469C39.0938 20.3594 39.7812 19.75 40.4688 19.2188C41.1562 18.6875 41.8438 18.2656 42.5312 17.9531C43.25 17.6406 43.9531 17.4844 44.6406 17.4844C45.1719 17.4844 45.6094 17.6406 45.9531 17.9531C46.3281 18.2656 46.6094 18.6875 46.7969 19.2188C47.0156 19.7188 47.1406 20.3281 47.1719 21.0469C47.2031 21.7344 47.1719 22.4531 47.0781 23.2031C47.5781 22.5469 48.125 21.8906 48.7188 21.2344C49.3438 20.5469 49.9844 19.9375 50.6406 19.4062C51.3281 18.875 52.0312 18.4375 52.75 18.0938C53.4688 17.75 54.1875 17.5781 54.9062 17.5781C55.75 17.5781 56.3906 17.8281 56.8281 18.3281C57.2969 18.8281 57.6094 19.4688 57.7656 20.25C57.9531 21.0312 58 21.875 57.9062 22.7812C57.8438 23.6875 57.7188 24.5625 57.5312 25.4062L55.9375 31.7344C55.5938 33.2969 55.9219 34.0781 56.9219 34.0781C57.7031 34.0781 58.5625 33.7031 59.5 32.9531C60.4375 32.2031 61.3438 31.3125 62.2188 30.2812C63.125 29.25 63.9688 28.1875 64.75 27.0938C65.5312 26 66.1875 25.125 66.7188 24.4688C66.9062 24.25 67.0938 24.125 67.2812 24.0938C67.5 24.0625 67.6719 24.1094 67.7969 24.2344C67.9531 24.3281 68.0312 24.5 68.0312 24.75C68.0625 25 67.9844 25.3125 67.7969 25.6875C67.1719 26.7812 66.4062 28 65.5 29.3438C64.5938 30.6562 63.5938 31.8906 62.5 33.0469C61.4375 34.2031 60.2969 35.1719 59.0781 35.9531C57.8594 36.7344 56.5938 37.125 55.2812 37.125C54.8438 37.125 54.4062 37.0781 53.9688 36.9844C53.5625 36.8906 53.1719 36.7188 52.7969 36.4688C52.4531 36.2188 52.1719 35.8906 51.9531 35.4844C51.7344 35.0469 51.625 34.5 51.625 33.8438ZM60.8594 56.0156C60.6406 55.9219 60.4219 55.7812 60.2031 55.5938C60.0156 55.4375 59.8281 55.2344 59.6406 54.9844C59.4531 54.7656 59.2969 54.4844 59.1719 54.1406C60.0469 50.7969 60.7969 47.8906 61.4219 45.4219C62.0156 42.9531 62.5312 40.8906 62.9688 39.2344C63.4375 37.2969 63.8438 35.6719 64.1875 34.3594C64.5 33.1094 64.8125 31.8594 65.125 30.6094C65.375 29.5156 65.6406 28.3438 65.9219 27.0938C66.2344 25.8438 66.5156 24.6719 66.7656 23.5781C67.0781 22.3594 67.2656 21.3906 67.3281 20.6719C67.3906 19.9219 67.1562 19.2812 66.625 18.75C67 18.4375 67.375 18.2031 67.75 18.0469C68.1562 17.8594 68.5156 17.7344 68.8281 17.6719C69.1719 17.5781 69.5156 17.5469 69.8594 17.5781C70.7031 17.6406 71.2188 17.9062 71.4062 18.375C71.625 18.8438 71.6562 19.5938 71.5 20.625C71.4688 20.7812 71.4375 20.9219 71.4062 21.0469C71.4062 21.1406 71.4062 21.25 71.4062 21.375C71.8438 20.875 72.3281 20.3906 72.8594 19.9219C73.3906 19.4531 73.9219 19.0312 74.4531 18.6562C75.0156 18.2812 75.5781 17.9844 76.1406 17.7656C76.7344 17.5156 77.2969 17.3906 77.8281 17.3906C78.5469 17.3906 79.125 17.5781 79.5625 17.9531C80.0312 18.2969 80.3906 18.7656 80.6406 19.3594C80.8906 19.9531 81.0469 20.625 81.1094 21.375C81.1719 22.0938 81.1875 22.8125 81.1562 23.5312C81.125 24.3125 80.9844 25.1406 80.7344 26.0156C80.5156 26.8906 80.2031 27.7812 79.7969 28.6875C79.3906 29.5938 78.9219 30.4844 78.3906 31.3594C77.8594 32.2344 77.2969 33.0469 76.7031 33.7969C76.8281 33.8281 76.9062 33.8594 76.9375 33.8906C76.9688 33.8906 76.9844 33.9062 76.9844 33.9375C76.9844 33.9375 77 33.9531 77.0312 33.9844C77.0938 33.9844 77.2031 33.9844 77.3594 33.9844C78.0781 33.9844 78.8125 33.7969 79.5625 33.4219C80.3125 33.0469 81.0469 32.5781 81.7656 32.0156C82.4844 31.4219 83.1719 30.7812 83.8281 30.0938C84.5156 29.4062 85.125 28.75 85.6562 28.125C86.2188 27.4688 86.6875 26.8906 87.0625 26.3906C87.4375 25.8594 87.7188 25.4844 87.9062 25.2656C88.1562 24.9531 88.3906 24.75 88.6094 24.6562C88.8281 24.5312 89 24.5156 89.125 24.6094C89.25 24.7031 89.3125 24.8906 89.3125 25.1719C89.3125 25.4219 89.2188 25.75 89.0312 26.1562C88.9062 26.4375 88.6406 26.8906 88.2344 27.5156C87.8281 28.1406 87.3281 28.8438 86.7344 29.625C86.1406 30.4062 85.4531 31.2188 84.6719 32.0625C83.9219 32.9062 83.125 33.6719 82.2812 34.3594C81.4375 35.0469 80.5625 35.6094 79.6562 36.0469C78.7812 36.5156 77.9219 36.75 77.0781 36.75C76.6719 36.75 76.3438 36.7344 76.0938 36.7031C75.8438 36.6719 75.625 36.6094 75.4375 36.5156C75.2812 36.4531 75.125 36.375 74.9688 36.2812C74.8125 36.2188 74.625 36.1406 74.4062 36.0469C73.8438 36.4844 73.2656 36.8125 72.6719 37.0312C72.0781 37.2812 71.5 37.4062 70.9375 37.4062C70.4062 37.4062 69.9375 37.3125 69.5312 37.125C69.1562 36.9688 68.8438 36.7344 68.5938 36.4219C68.3438 36.1406 68.1406 35.8281 67.9844 35.4844C67.8281 35.1094 67.7031 34.75 67.6094 34.4062C67.5781 34.5312 67.5469 34.6406 67.5156 34.7344C67.5156 34.8281 67.5 34.9531 67.4688 35.1094C67.0938 36.6094 66.7031 38.3438 66.2969 40.3125C65.9531 42 65.5312 44.0469 65.0312 46.4531C64.5625 48.8906 64.0625 51.6562 63.5312 54.75C63.3438 55.5938 63.0156 56.0781 62.5469 56.2031C62.0469 56.3281 61.4844 56.2656 60.8594 56.0156ZM69.4375 26.9531C69.2812 27.4844 69.1094 28.1094 68.9219 28.8281C68.7656 29.5156 68.5781 30.3438 68.3594 31.3125C68.6094 31.125 68.8906 30.9844 69.2031 30.8906C69.5156 30.7969 69.8281 30.75 70.1406 30.75C70.4844 30.75 70.9219 30.9375 71.4531 31.3125C71.9844 31.6562 72.625 32.0312 73.375 32.4375C73.8438 31.875 74.3281 31.25 74.8281 30.5625C75.3594 29.8438 75.8281 29.1094 76.2344 28.3594C76.6719 27.6094 77.0312 26.8438 77.3125 26.0625C77.625 25.2812 77.7969 24.5312 77.8281 23.8125C77.8906 22.875 77.7812 22.1406 77.5 21.6094C77.2188 21.0781 76.75 20.8125 76.0938 20.8125C75.125 20.8125 74.0625 21.3906 72.9062 22.5469C71.7812 23.6719 70.625 25.1406 69.4375 26.9531ZM107.125 26.25C106.188 27.625 105.125 28.9688 103.938 30.2812C102.75 31.5625 101.484 32.7188 100.141 33.75C98.8281 34.75 97.4688 35.5625 96.0625 36.1875C94.6875 36.8125 93.3438 37.125 92.0312 37.125C91.3438 37.125 90.5938 36.9531 89.7812 36.6094C89 36.2969 88.2812 35.7969 87.625 35.1094C86.9688 34.4219 86.4375 33.5312 86.0312 32.4375C85.6562 31.3438 85.5469 30.0156 85.7031 28.4531C85.8281 27.1719 86.2188 25.8281 86.875 24.4219C87.5625 22.9844 88.3906 21.6719 89.3594 20.4844C90.3594 19.2969 91.4688 18.3125 92.6875 17.5312C93.9375 16.75 95.1875 16.3594 96.4375 16.3594C97.625 16.3594 98.4844 16.6562 99.0156 17.25C99.5469 17.8438 99.7812 18.5781 99.7188 19.4531C99.625 20.4219 99.3438 21.3125 98.875 22.125C98.4375 22.9375 97.9062 23.6719 97.2812 24.3281C96.6562 24.9844 95.9844 25.5781 95.2656 26.1094C94.5781 26.6406 93.9219 27.125 93.2969 27.5625C92.6094 28.0312 91.9531 28.4844 91.3281 28.9219C90.7031 29.3281 90.1562 29.7031 89.6875 30.0469C89.7188 30.8281 89.8594 31.4844 90.1094 32.0156C90.3594 32.5469 90.6719 32.9844 91.0469 33.3281C91.4219 33.6406 91.8438 33.875 92.3125 34.0312C92.8125 34.1562 93.3125 34.2188 93.8125 34.2188C94.875 34.2188 95.9844 33.8906 97.1406 33.2344C98.2969 32.5469 99.4219 31.7344 100.516 30.7969C101.641 29.8281 102.672 28.8281 103.609 27.7969C104.578 26.7656 105.375 25.875 106 25.125C106.219 24.875 106.438 24.7344 106.656 24.7031C106.906 24.6406 107.094 24.6719 107.219 24.7969C107.375 24.8906 107.453 25.0781 107.453 25.3594C107.453 25.6094 107.344 25.9062 107.125 26.25ZM95.125 19.0312C94.75 19.0312 94.2969 19.2188 93.7656 19.5938C93.2656 19.9688 92.7656 20.5156 92.2656 21.2344C91.7656 21.9219 91.2969 22.7812 90.8594 23.8125C90.4219 24.8125 90.0938 25.9688 89.875 27.2812C90.25 27 90.6562 26.7188 91.0938 26.4375C91.5312 26.125 91.9688 25.7969 92.4062 25.4531C93.75 24.4219 94.6875 23.5156 95.2188 22.7344C95.75 21.9531 96.0469 21.2812 96.1094 20.7188C96.1719 20.125 96.1094 19.7031 95.9219 19.4531C95.7344 19.1719 95.4688 19.0312 95.125 19.0312ZM101.969 35.7656C101.75 36.1094 101.516 36.3281 101.266 36.4219C100.984 36.5469 100.75 36.5625 100.562 36.4688C100.344 36.4062 100.203 36.25 100.141 36C100.078 35.75 100.141 35.4375 100.328 35.0625C100.422 34.875 100.641 34.4531 100.984 33.7969C101.297 33.1406 101.688 32.3594 102.156 31.4531C102.594 30.5156 103.078 29.5156 103.609 28.4531C104.141 27.3594 104.641 26.3281 105.109 25.3594C105.609 24.3906 106.062 23.5312 106.469 22.7812C106.875 22 107.172 21.4375 107.359 21.0938C107.016 20.7812 106.781 20.5625 106.656 20.4375C106.531 20.2812 106.438 19.9688 106.375 19.5C106.312 19.0938 106.406 18.5625 106.656 17.9062C106.906 17.25 107.234 16.625 107.641 16.0312C108.047 15.4062 108.5 14.875 109 14.4375C109.5 14 109.984 13.7812 110.453 13.7812C111.328 13.7812 111.938 14.0625 112.281 14.625C112.656 15.1875 112.875 15.7656 112.938 16.3594C113 16.7656 112.969 17.2812 112.844 17.9062C112.719 18.5312 112.484 19.0938 112.141 19.5938C112.234 19.6562 112.359 19.7344 112.516 19.8281C112.672 19.8906 112.922 19.9219 113.266 19.9219C113.766 19.9219 114.109 19.8906 114.297 19.8281C114.516 19.7656 114.844 19.7344 115.281 19.7344C115.812 19.7344 116.25 19.875 116.594 20.1562C116.938 20.4062 117.219 20.7344 117.438 21.1406C117.656 21.5156 117.812 21.9375 117.906 22.4062C118.031 22.8438 118.109 23.25 118.141 23.625C118.234 24.4062 118.031 25.2188 117.531 26.0625C117.031 26.9062 116.422 27.8281 115.703 28.8281C115.266 29.4531 114.828 30.1562 114.391 30.9375C113.953 31.7188 113.766 32.4219 113.828 33.0469C113.891 33.4531 114 33.7812 114.156 34.0312C114.312 34.2812 114.75 34.4062 115.469 34.4062C116 34.4062 116.578 34.2188 117.203 33.8438C117.859 33.4375 118.516 32.9375 119.172 32.3438C119.859 31.7188 120.531 31.0469 121.188 30.3281C121.844 29.5781 122.453 28.8594 123.016 28.1719C123.578 27.4531 124.047 26.8125 124.422 26.25C124.828 25.6875 125.125 25.2812 125.312 25.0312C125.469 24.7812 125.672 24.6094 125.922 24.5156C126.172 24.4219 126.391 24.4219 126.578 24.5156C126.766 24.6094 126.875 24.7969 126.906 25.0781C126.969 25.3594 126.859 25.7344 126.578 26.2031C126.391 26.5156 126.062 27.0156 125.594 27.7031C125.156 28.3906 124.609 29.1562 123.953 30C123.328 30.8438 122.625 31.7188 121.844 32.625C121.062 33.5 120.234 34.3125 119.359 35.0625C118.516 35.7812 117.656 36.375 116.781 36.8438C115.938 37.3125 115.125 37.5469 114.344 37.5469C113.531 37.5469 112.859 37.3906 112.328 37.0781C111.797 36.7656 111.359 36.3906 111.016 35.9531C110.703 35.4844 110.469 34.9844 110.312 34.4531C110.188 33.8906 110.141 33.375 110.172 32.9062C110.203 32.5312 110.297 32.1406 110.453 31.7344C110.641 31.2969 110.844 30.8594 111.062 30.4219C111.312 29.9531 111.562 29.5 111.812 29.0625C112.094 28.5938 112.344 28.1406 112.562 27.7031C113.094 26.7969 113.516 26.0312 113.828 25.4062C114.172 24.75 114.344 24.2031 114.344 23.7656C114.344 23.4844 114.281 23.2344 114.156 23.0156C114.031 22.7969 113.828 22.6875 113.547 22.6875C113.359 22.6875 113.219 22.7031 113.125 22.7344C113.062 22.7344 112.984 22.7344 112.891 22.7344C112.828 22.7344 112.719 22.75 112.562 22.7812C112.438 22.7812 112.234 22.7812 111.953 22.7812C111.547 22.7812 111.203 22.7188 110.922 22.5938C110.641 22.4688 110.375 22.375 110.125 22.3125C110 22.5312 109.719 23 109.281 23.7188C108.844 24.4375 108.328 25.2812 107.734 26.25C107.172 27.2188 106.562 28.2344 105.906 29.2969C105.281 30.3594 104.688 31.3594 104.125 32.2969C103.562 33.2031 103.094 33.9844 102.719 34.6406C102.312 35.2656 102.062 35.6406 101.969 35.7656ZM133.562 8.39062C133.469 8.73438 133.281 9.07812 133 9.42188C132.75 9.73438 132.453 10 132.109 10.2188C131.797 10.4062 131.469 10.5312 131.125 10.5938C130.781 10.6562 130.5 10.5938 130.281 10.4062C129.625 9.90625 129.281 9.375 129.25 8.8125C129.219 8.21875 129.359 7.67188 129.672 7.17188C129.984 6.64062 130.375 6.20313 130.844 5.85938C131.312 5.48438 131.719 5.26563 132.062 5.20312C132.406 5.14062 132.688 5.21875 132.906 5.4375C133.156 5.625 133.344 5.89062 133.469 6.23438C133.594 6.54687 133.656 6.90625 133.656 7.3125C133.688 7.71875 133.656 8.07812 133.562 8.39062ZM127.094 18.375C127.25 18.1875 127.547 18.0312 127.984 17.9062C128.422 17.7812 128.875 17.6875 129.344 17.625C129.812 17.5312 130.234 17.4844 130.609 17.4844C131.016 17.4531 131.25 17.4531 131.312 17.4844C131.344 17.5156 131.266 17.8438 131.078 18.4688C130.891 19.0938 130.656 19.8281 130.375 20.6719C130.094 21.5156 129.797 22.3906 129.484 23.2969C129.172 24.1719 128.938 24.8906 128.781 25.4531C128.625 26.0156 128.438 26.6562 128.219 27.375C128 28.0625 127.797 28.75 127.609 29.4375C127.453 30.0938 127.344 30.7188 127.281 31.3125C127.219 31.9062 127.266 32.3594 127.422 32.6719C127.578 33.0469 127.75 33.3125 127.938 33.4688C128.125 33.5938 128.328 33.6562 128.547 33.6562C129.172 33.6562 129.953 33.3125 130.891 32.625C131.859 31.9375 132.828 31.125 133.797 30.1875C134.797 29.2188 135.719 28.25 136.562 27.2812C137.406 26.2812 138.031 25.4844 138.438 24.8906C138.688 24.5781 138.938 24.375 139.188 24.2812C139.469 24.1875 139.688 24.2031 139.844 24.3281C140.031 24.4531 140.125 24.6562 140.125 24.9375C140.156 25.2188 140.062 25.5469 139.844 25.9219C139.344 26.7969 138.609 27.8438 137.641 29.0625C136.672 30.25 135.641 31.4062 134.547 32.5312C133.453 33.625 132.375 34.5625 131.312 35.3438C130.281 36.125 129.438 36.5312 128.781 36.5625C128.25 36.5938 127.719 36.5 127.188 36.2812C126.688 36.0938 126.219 35.8281 125.781 35.4844C125.375 35.1094 125.031 34.6875 124.75 34.2188C124.469 33.7188 124.312 33.2031 124.281 32.6719C124.188 31.8906 124.188 30.8281 124.281 29.4844C124.375 28.1094 124.547 26.7188 124.797 25.3125C125.047 23.875 125.359 22.5156 125.734 21.2344C126.141 19.9531 126.594 19 127.094 18.375ZM160.469 26.6719C160.031 27.2969 159.469 28.0781 158.781 29.0156C158.094 29.9219 157.375 30.8438 156.625 31.7812C155.906 32.6875 155.188 33.5312 154.469 34.3125C153.781 35.0625 153.203 35.5938 152.734 35.9062C152.422 36.0938 152.062 36.25 151.656 36.375C151.25 36.5 150.828 36.5781 150.391 36.6094C149.984 36.6406 149.594 36.6094 149.219 36.5156C148.844 36.4531 148.516 36.3281 148.234 36.1406C147.953 35.9219 147.719 35.6094 147.531 35.2031C147.375 34.8594 147.219 34.4062 147.062 33.8438C146.938 33.2812 146.891 32.5781 146.922 31.7344C146.172 32.9844 145.344 33.9531 144.438 34.6406C143.531 35.2969 142.672 35.7812 141.859 36.0938C140.922 36.4375 139.984 36.6406 139.047 36.7031C138.609 36.7031 138.141 36.5469 137.641 36.2344C137.141 35.9531 136.719 35.5 136.375 34.875C136.031 34.2188 135.812 33.3906 135.719 32.3906C135.625 31.3594 135.75 30.1406 136.094 28.7344C136.531 26.8281 137.219 25.0938 138.156 23.5312C139.125 21.9688 140.172 20.6406 141.297 19.5469C142.422 18.4219 143.531 17.5781 144.625 17.0156C145.719 16.4531 146.625 16.2031 147.344 16.2656C148.188 16.4219 148.875 16.6719 149.406 17.0156C149.844 17.3281 150.125 17.7969 150.25 18.4219C150.406 19.0156 150.156 19.8125 149.5 20.8125C149.938 20.7188 150.297 20.6562 150.578 20.625C150.891 20.5938 151.125 20.5781 151.281 20.5781C151.469 20.5781 151.594 20.5938 151.656 20.625C151.688 20.6875 151.703 20.8281 151.703 21.0469C151.703 21.2344 151.656 21.5938 151.562 22.125C151.469 22.6562 151.328 23.375 151.141 24.2812C150.953 25.1875 150.703 26.3594 150.391 27.7969C150.328 28.0781 150.266 28.3438 150.203 28.5938C150.172 28.8125 150.125 29.0469 150.062 29.2969C150.031 29.5156 149.984 29.7812 149.922 30.0938C149.859 30.4062 149.781 30.7969 149.688 31.2656C149.656 31.5469 149.641 31.8594 149.641 32.2031C149.672 32.5156 149.734 32.8125 149.828 33.0938C149.922 33.375 150.062 33.6094 150.25 33.7969C150.469 33.9531 150.766 34.0312 151.141 34.0312C151.453 34.0312 151.859 33.8438 152.359 33.4688C152.859 33.0625 153.391 32.5625 153.953 31.9688C154.516 31.3438 155.094 30.6719 155.688 29.9531C156.312 29.2031 156.891 28.4844 157.422 27.7969C157.953 27.1094 158.422 26.5 158.828 25.9688C159.266 25.4375 159.578 25.0469 159.766 24.7969C160.016 24.5156 160.266 24.3594 160.516 24.3281C160.766 24.2656 160.953 24.3281 161.078 24.5156C161.203 24.7031 161.219 24.9844 161.125 25.3594C161.062 25.7344 160.844 26.1719 160.469 26.6719ZM146.734 28.7344C146.891 28.1094 147.078 27.375 147.297 26.5312C147.516 25.6875 147.703 24.875 147.859 24.0938C148.016 23.3125 148.125 22.6719 148.188 22.1719C148.281 21.6406 148.266 21.3906 148.141 21.4219C147.984 21.4531 147.812 21.5 147.625 21.5625C147.469 21.625 147.266 21.6719 147.016 21.7031C146.766 21.7344 146.516 21.7812 146.266 21.8438C146.516 21.3438 146.656 20.9375 146.688 20.625C146.75 20.2812 146.766 20.0156 146.734 19.8281C146.703 19.6094 146.641 19.4375 146.547 19.3125C146.203 19.0312 145.594 19.2656 144.719 20.0156C143.875 20.7344 142.891 22.0781 141.766 24.0469C141.297 24.8594 140.922 25.7344 140.641 26.6719C140.359 27.5781 140.156 28.4375 140.031 29.25C139.938 30.0625 139.922 30.7812 139.984 31.4062C140.047 32 140.172 32.3906 140.359 32.5781C140.703 32.9219 141.094 33.0938 141.531 33.0938C141.969 33.0625 142.406 32.9375 142.844 32.7188C143.312 32.4688 143.766 32.1562 144.203 31.7812C144.672 31.4062 145.078 31.0156 145.422 30.6094C145.797 30.2031 146.094 29.8281 146.312 29.4844C146.562 29.1406 146.703 28.8906 146.734 28.7344ZM156.625 35.25C158 29.4688 159.094 24.8281 159.906 21.3281C160.75 17.8281 161.391 15.1562 161.828 13.3125C162.328 11.125 162.672 9.60938 162.859 8.76562C162.953 8.17188 163.031 7.59375 163.094 7.03125C163.156 6.53125 163.188 6.01563 163.188 5.48438C163.188 4.95312 163.141 4.46875 163.047 4.03125C163.297 3.875 163.562 3.75 163.844 3.65625C164.156 3.5625 164.453 3.48438 164.734 3.42188C165.078 3.32812 165.422 3.25 165.766 3.1875C166.109 3.125 166.422 3.09375 166.703 3.09375C166.953 3.09375 167.188 3.125 167.406 3.1875C167.625 3.21875 167.766 3.3125 167.828 3.46875C168.016 3.625 168.094 3.9375 168.062 4.40625C168.062 4.875 168.031 5.35938 167.969 5.85938C167.844 6.45312 167.703 7.09375 167.547 7.78125C167.172 9.125 166.656 11.0625 166 13.5938C165.438 15.75 164.672 18.6875 163.703 22.4062C162.766 26.125 161.578 30.8125 160.141 36.4688C159.984 36.625 159.797 36.7344 159.578 36.7969C159.359 36.8594 159.156 36.8906 158.969 36.8906C158.75 36.8906 158.516 36.875 158.266 36.8438C158.047 36.7812 157.828 36.6875 157.609 36.5625C157.422 36.4375 157.234 36.2656 157.047 36.0469C156.859 35.8594 156.719 35.5938 156.625 35.25Z" fill="white"/>
</svg>
